<svg width="12" height="12" viewBox="0 0 12 12" fill="none" xmlns="http://www.w3.org/2000/svg">
<g clip-path="url(#clip0_1631_6749)">
<path fill-rule="evenodd" clip-rule="evenodd" d="M0 6.00002C0 5.88635 0.0451529 5.77735 0.125526 5.69697C0.205898 5.6166 0.314907 5.57145 0.428571 5.57145H10.5369L7.83943 2.87488C7.75895 2.7944 7.71374 2.68525 7.71374 2.57145C7.71374 2.45764 7.75895 2.34849 7.83943 2.26802C7.9199 2.18754 8.02905 2.14233 8.14286 2.14233C8.25667 2.14233 8.36581 2.18754 8.44629 2.26802L11.8749 5.69659C11.9148 5.7364 11.9464 5.78369 11.968 5.83576C11.9896 5.88783 12.0008 5.94365 12.0008 6.00002C12.0008 6.05639 11.9896 6.11221 11.968 6.16428C11.9464 6.21634 11.9148 6.26364 11.8749 6.30345L8.44629 9.73202C8.36581 9.81249 8.25667 9.8577 8.14286 9.8577C8.02905 9.8577 7.9199 9.81249 7.83943 9.73202C7.75895 9.65154 7.71374 9.5424 7.71374 9.42859C7.71374 9.31478 7.75895 9.20564 7.83943 9.12516L10.5369 6.42859H0.428571C0.314907 6.42859 0.205898 6.38344 0.125526 6.30306C0.0451529 6.22269 0 6.11368 0 6.00002Z" fill="#27C1CE"/>
</g>
<defs>
<clipPath id="clip0_1631_6749">
<rect width="12" height="12" fill="white"/>
</clipPath>
</defs>
</svg>
