<svg width="21" height="12" viewBox="0 0 21 12" fill="none" xmlns="http://www.w3.org/2000/svg">
<path d="M11.6302 0.907915C11.8669 0.682534 12.182 0.557934 12.5088 0.560407C12.8357 0.562881 13.1488 0.692234 13.3821 0.921171C13.6154 1.15011 13.7506 1.46072 13.7593 1.78747C13.7679 2.11422 13.6493 2.43155 13.4284 2.6725L6.72297 11.0585C6.60767 11.1827 6.46851 11.2823 6.31381 11.3515C6.15911 11.4207 5.99205 11.458 5.82262 11.4611C5.65318 11.4642 5.48486 11.4332 5.3277 11.3698C5.17055 11.3064 5.02779 11.2119 4.90797 11.0921L0.461221 6.64533C0.337386 6.52994 0.238062 6.39079 0.169172 6.23618C0.100283 6.08157 0.0632407 5.91467 0.0602548 5.74543C0.0572688 5.5762 0.0884004 5.40809 0.151793 5.25115C0.215185 5.0942 0.309539 4.95164 0.429226 4.83195C0.548913 4.71226 0.691481 4.61791 0.848425 4.55452C1.00537 4.49112 1.17347 4.45999 1.34271 4.46298C1.51195 4.46596 1.67885 4.50301 1.83346 4.5719C1.98807 4.64078 2.12722 4.74011 2.24261 4.86394L5.76169 8.38135L11.5966 0.944888C11.607 0.931913 11.6183 0.919567 11.6302 0.907915ZM10.0841 9.54597L11.6302 11.0921C11.75 11.2117 11.8926 11.3059 12.0496 11.3691C12.2066 11.4324 12.3748 11.4634 12.544 11.4602C12.7132 11.4571 12.8801 11.4199 13.0346 11.3509C13.1892 11.2818 13.3282 11.1824 13.4435 11.0585L20.1523 2.6725C20.2728 2.55352 20.3681 2.41147 20.4325 2.25484C20.4969 2.09821 20.5291 1.93021 20.5271 1.76087C20.5251 1.59152 20.489 1.42432 20.421 1.26923C20.353 1.11414 20.2544 0.974359 20.1311 0.85822C20.0079 0.742082 19.8625 0.651973 19.7036 0.593275C19.5448 0.534577 19.3757 0.508494 19.2066 0.516583C19.0374 0.524673 18.8716 0.566769 18.7191 0.640357C18.5666 0.713946 18.4304 0.817518 18.3188 0.944888L12.4822 8.38135L11.6672 7.5646L10.0824 9.54597H10.0841Z" fill="#212121"/>
</svg>
