<svg width="30" height="24" viewBox="0 0 30 24" fill="none" xmlns="http://www.w3.org/2000/svg">
<path d="M27.1289 0.808594H2.75393C1.20301 0.808594 -0.0585938 2.07019 -0.0585938 3.62111V20.4961C-0.0585938 22.047 1.20301 23.3086 2.75393 23.3086H27.1289C28.6798 23.3086 29.9414 22.047 29.9414 20.4961V3.62111C29.9414 2.07019 28.6798 0.808594 27.1289 0.808594ZM27.1289 2.68359C27.2563 2.68359 27.3774 2.71001 27.4882 2.75617L14.9414 13.6306L2.39453 2.75617C2.50531 2.71008 2.62649 2.68359 2.75386 2.68359H27.1289ZM27.1289 21.4336H2.75393C2.23666 21.4336 1.8164 21.0134 1.8164 20.496V4.73712L14.3271 15.5797C14.5038 15.7326 14.7226 15.8086 14.9414 15.8086C15.1602 15.8086 15.379 15.7326 15.5557 15.5797L28.0664 4.73712V20.4961C28.0664 21.0134 27.6462 21.4336 27.1289 21.4336Z" fill="white"/>
</svg>
