<svg width="26" height="26" viewBox="0 0 26 26" fill="none" xmlns="http://www.w3.org/2000/svg">
<path d="M20.5483 16.106C20.016 15.5517 19.374 15.2554 18.6936 15.2554C18.0186 15.2554 17.3711 15.5462 16.8168 16.1005L15.0828 17.829C14.9401 17.7522 14.7974 17.6809 14.6603 17.6095C14.4627 17.5108 14.2761 17.4175 14.117 17.3187C12.4927 16.2871 11.0166 14.9426 9.60081 13.2031C8.91487 12.3361 8.45393 11.6062 8.11919 10.8654C8.56916 10.4539 8.98621 10.0258 9.39228 9.61428C9.54593 9.46063 9.69958 9.30149 9.85323 9.14784C11.0056 7.99547 11.0056 6.50288 9.85323 5.35051L8.35515 3.85243C8.18504 3.68231 8.00944 3.50671 7.84482 3.33111C7.51557 2.99089 7.16986 2.63969 6.81317 2.31044C6.28088 1.78365 5.64434 1.50378 4.97486 1.50378C4.30539 1.50378 3.65787 1.78365 3.10912 2.31044C3.10364 2.31593 3.10364 2.31593 3.09815 2.32142L1.23241 4.20362C0.530009 4.90602 0.129423 5.76207 0.0416231 6.7553C-0.0900763 8.35765 0.381847 9.85024 0.74402 10.827C1.63299 13.225 2.96096 15.4475 4.94194 17.829C7.34546 20.699 10.2374 22.9653 13.5408 24.5622C14.8029 25.1603 16.4876 25.8682 18.3698 25.9889C18.485 25.9944 18.6058 25.9999 18.7155 25.9999C19.9831 25.9999 21.0477 25.5444 21.8818 24.639C21.8873 24.628 21.8982 24.6225 21.9037 24.6116C22.1891 24.2658 22.5183 23.9531 22.864 23.6183C23.1 23.3933 23.3415 23.1574 23.5774 22.9104C24.1207 22.3452 24.406 21.6867 24.406 21.0118C24.406 20.3313 24.1152 19.6783 23.5609 19.1296L20.5483 16.106ZM22.5128 21.8843C22.5074 21.8843 22.5074 21.8898 22.5128 21.8843C22.2988 22.1148 22.0793 22.3233 21.8434 22.5538C21.4867 22.894 21.1245 23.2507 20.7843 23.6512C20.2301 24.2439 19.577 24.5238 18.721 24.5238C18.6387 24.5238 18.5509 24.5238 18.4686 24.5183C16.8388 24.414 15.3242 23.7775 14.1883 23.2342C11.0824 21.7306 8.35515 19.596 6.08882 16.8907C4.21759 14.6353 2.96645 12.5501 2.13784 10.3112C1.6275 8.94481 1.44093 7.88023 1.52324 6.87603C1.57812 6.23399 1.82505 5.70171 2.28051 5.24625L4.15174 3.37501C4.42063 3.12259 4.70598 2.9854 4.98584 2.9854C5.33155 2.9854 5.61141 3.19393 5.78701 3.36953C5.7925 3.37501 5.79799 3.3805 5.80347 3.38599C6.13821 3.69878 6.45648 4.02254 6.79122 4.36825C6.96133 4.54385 7.13693 4.71945 7.31253 4.90053L8.81061 6.39862C9.39228 6.98029 9.39228 7.51806 8.81061 8.09973C8.65147 8.25887 8.49782 8.41801 8.33869 8.57166C7.87774 9.04358 7.43874 9.48258 6.96133 9.9106C6.95036 9.92158 6.93938 9.92706 6.93389 9.93804C6.46197 10.41 6.54977 10.8709 6.64855 11.1837C6.65403 11.2002 6.65952 11.2166 6.66501 11.2331C7.05462 12.1769 7.60337 13.0659 8.43746 14.125L8.44295 14.1305C9.95749 15.9962 11.5544 17.4504 13.3158 18.5644C13.5408 18.707 13.7713 18.8223 13.9908 18.932C14.1883 19.0308 14.3749 19.1241 14.534 19.2229C14.556 19.2338 14.5779 19.2503 14.5999 19.2613C14.7865 19.3546 14.9621 19.3985 15.1432 19.3985C15.5986 19.3985 15.884 19.1131 15.9773 19.0198L17.854 17.1431C18.0405 16.9565 18.3369 16.7315 18.6826 16.7315C19.0228 16.7315 19.3027 16.9455 19.4728 17.1321C19.4783 17.1376 19.4783 17.1376 19.4838 17.1431L22.5074 20.1667C23.0726 20.7264 23.0726 21.3026 22.5128 21.8843Z" fill="#212121"/>
<path d="M14.0512 6.18492C15.4889 6.42637 16.7949 7.10682 17.8375 8.14944C18.8802 9.19206 19.5551 10.4981 19.8021 11.9358C19.8624 12.298 20.1752 12.5504 20.5319 12.5504C20.5758 12.5504 20.6142 12.5449 20.6581 12.5394C21.0642 12.4736 21.3331 12.0894 21.2672 11.6834C20.9709 9.94384 20.1478 8.35796 18.8911 7.10133C17.6345 5.8447 16.0486 5.02157 14.3091 4.72525C13.903 4.6594 13.5244 4.92829 13.4531 5.32887C13.3817 5.72946 13.6451 6.11907 14.0512 6.18492Z" fill="#212121"/>
<path d="M25.9699 11.4691C25.4816 8.60468 24.1316 5.99813 22.0574 3.92387C19.9831 1.8496 17.3765 0.49968 14.5121 0.011294C14.1115 -0.0600432 13.7329 0.214331 13.6615 0.614917C13.5957 1.02099 13.8646 1.39963 14.2706 1.47096C16.8278 1.90447 19.16 3.11721 21.0147 4.96649C22.8695 6.82125 24.0768 9.15343 24.5103 11.7106C24.5706 12.0728 24.8834 12.3252 25.2401 12.3252C25.284 12.3252 25.3224 12.3197 25.3663 12.3142C25.7669 12.2539 26.0413 11.8697 25.9699 11.4691Z" fill="#212121"/>
</svg>
