<svg width="30" height="30" viewBox="0 0 30 30" fill="none" xmlns="http://www.w3.org/2000/svg">
<path d="M23.7072 18.583C23.093 17.9435 22.3522 17.6016 21.567 17.6016C20.7882 17.6016 20.0411 17.9372 19.4016 18.5767L17.4008 20.5712C17.2362 20.4826 17.0715 20.4002 16.9132 20.3179C16.6853 20.204 16.47 20.0963 16.2864 19.9824C14.4122 18.792 12.709 17.2407 11.0754 15.2336C10.284 14.2332 9.75209 13.391 9.36585 12.5363C9.88505 12.0614 10.3663 11.5675 10.8348 11.0926C11.0121 10.9153 11.1894 10.7317 11.3667 10.5544C12.6963 9.22478 12.6963 7.50256 11.3667 6.1729L9.63812 4.44435C9.44183 4.24806 9.23922 4.04545 9.04927 3.84283C8.66937 3.45027 8.27047 3.04504 7.85891 2.66514C7.24473 2.05729 6.51026 1.73438 5.73779 1.73438C4.96532 1.73438 4.21818 2.05729 3.58501 2.66514C3.57868 2.67147 3.57868 2.67147 3.57235 2.6778L1.41957 4.84958C0.609107 5.66003 0.146893 6.64778 0.0455853 7.79382C-0.106376 9.64268 0.438151 11.3649 0.856043 12.4919C1.88178 15.2589 3.41405 17.8232 5.6998 20.5712C8.47308 23.8827 11.8099 26.4977 15.6216 28.3402C17.0779 29.0304 19.0217 29.8472 21.1935 29.9865C21.3264 29.9928 21.4657 29.9991 21.5924 29.9991C23.055 29.9991 24.2834 29.4736 25.2458 28.4289C25.2521 28.4162 25.2648 28.4099 25.2711 28.3972C25.6003 27.9983 25.9802 27.6374 26.3791 27.2512C26.6514 26.9916 26.93 26.7193 27.2023 26.4344C27.8291 25.7822 28.1584 25.0224 28.1584 24.2436C28.1584 23.4585 27.8228 22.705 27.1833 22.0718L23.7072 18.583ZM25.9739 25.2503C25.9676 25.2503 25.9676 25.2567 25.9739 25.2503C25.727 25.5163 25.4737 25.7569 25.2014 26.0228C24.7899 26.4154 24.372 26.8269 23.9794 27.2891C23.3399 27.973 22.5865 28.2959 21.5987 28.2959C21.5037 28.2959 21.4024 28.2959 21.3074 28.2896C19.4269 28.1693 17.6794 27.4348 16.3687 26.8079C12.785 25.073 9.63812 22.61 7.02312 19.4885C4.86401 16.8861 3.42038 14.4801 2.4643 11.8968C1.87545 10.3202 1.66017 9.09182 1.75515 7.93312C1.81846 7.19231 2.10339 6.57813 2.62892 6.0526L4.78803 3.89349C5.09829 3.60223 5.42753 3.44394 5.75045 3.44394C6.14935 3.44394 6.47227 3.68454 6.67488 3.88716C6.68121 3.89349 6.68754 3.89982 6.69387 3.90615C7.08011 4.26706 7.44735 4.64063 7.83358 5.03953C8.02986 5.24214 8.23248 5.44476 8.43509 5.6537L10.1636 7.38226C10.8348 8.05342 10.8348 8.67393 10.1636 9.34509C9.98003 9.52871 9.80274 9.71232 9.61912 9.88961C9.08726 10.4341 8.58072 10.9407 8.02987 11.4345C8.0172 11.4472 8.00454 11.4535 7.99821 11.4662C7.45368 12.0107 7.55499 12.5426 7.66896 12.9035C7.67529 12.9225 7.68162 12.9415 7.68795 12.9605C8.1375 14.0495 8.77067 15.0753 9.73309 16.2973L9.73943 16.3036C11.487 18.4564 13.3295 20.1343 15.362 21.4197C15.6216 21.5843 15.8875 21.7172 16.1408 21.8439C16.3687 21.9578 16.584 22.0655 16.7676 22.1795C16.7929 22.1921 16.8183 22.2111 16.8436 22.2238C17.0589 22.3314 17.2615 22.3821 17.4704 22.3821C17.996 22.3821 18.3252 22.0528 18.4329 21.9452L20.5983 19.7797C20.8136 19.5645 21.1555 19.3049 21.5544 19.3049C21.947 19.3049 22.2699 19.5518 22.4662 19.7671C22.4725 19.7734 22.4725 19.7734 22.4788 19.7797L25.9676 23.2685C26.6197 23.9143 26.6198 24.5792 25.9739 25.2503Z" fill="white"/>
<path d="M16.2114 7.13708C17.8703 7.41568 19.3773 8.20081 20.5803 9.40383C21.7833 10.6069 22.5621 12.1138 22.847 13.7727C22.9167 14.1906 23.2776 14.4819 23.6891 14.4819C23.7398 14.4819 23.7841 14.4755 23.8348 14.4692C24.3033 14.3932 24.6136 13.95 24.5376 13.4815C24.1957 11.4743 23.2459 9.64444 21.796 8.19448C20.346 6.74452 18.5161 5.79476 16.509 5.45285C16.0404 5.37687 15.6036 5.68712 15.5213 6.14934C15.4389 6.61155 15.7429 7.0611 16.2114 7.13708Z" fill="white"/>
<path d="M29.962 13.2336C29.3985 9.92848 27.8409 6.92092 25.4475 4.52754C23.0541 2.13415 20.0465 0.576553 16.7414 0.0130316C16.2792 -0.0692806 15.8423 0.247305 15.76 0.709519C15.684 1.17807 15.9942 1.61495 16.4628 1.69726C19.4134 2.19747 22.1043 3.59678 24.2445 5.73056C26.3846 7.87068 27.7775 10.5617 28.2778 13.5122C28.3474 13.9301 28.7083 14.2214 29.1199 14.2214C29.1705 14.2214 29.2148 14.215 29.2655 14.2087C29.7277 14.1391 30.0443 13.6958 29.962 13.2336Z" fill="white"/>
</svg>
