<svg width="40" height="40" viewBox="0 0 40 40" fill="none" xmlns="http://www.w3.org/2000/svg">
<path d="M40.008 20.02C39.976 31.124 31.024 40.028 19.92 40C8.92002 39.972 -0.0159785 30.996 2.14526e-05 19.992C0.0160214 8.94796 8.99201 -0.0160435 20.02 -4.34641e-05C31.068 0.0159565 40.036 9.00396 40.008 20.02ZM36.336 29.692C36.124 29.584 36.04 29.532 35.952 29.496C30.784 27.4 25.62 25.3 20.44 23.228C20.132 23.104 19.672 23.172 19.344 23.308C14.996 25.084 10.66 26.888 6.32402 28.684C5.49602 29.028 4.66802 29.376 3.75202 29.76C7.52802 35.552 12.74 38.788 19.588 38.92C26.832 39.068 32.34 35.792 36.336 29.692ZM20.272 1.11996C20.472 2.53196 20.644 3.76796 20.82 4.99996C21.42 9.26396 22.012 13.532 22.644 17.792C22.7 18.18 22.94 18.64 23.24 18.876C27.112 21.916 31.012 24.92 34.908 27.932C35.44 28.344 35.98 28.744 36.596 29.208C39.852 22.56 39.82 16.096 35.892 9.89196C32.324 4.26796 27.02 1.48796 20.272 1.11996ZM3.48002 29.304C3.66402 29.196 3.73202 29.168 3.78802 29.124C8.13202 25.616 12.48 22.116 16.804 18.588C17.052 18.388 17.224 17.996 17.276 17.668C17.916 13.612 18.528 9.54796 19.144 5.48396C19.356 4.07196 19.56 2.65596 19.788 1.10796C13.048 1.47996 7.72002 4.22396 4.14802 9.84796C0.164021 16.116 0.148021 22.644 3.48002 29.304Z" fill="#212121"/>
</svg>
